<svg id="图层_1" data-name="图层 1" xmlns="http://www.w3.org/2000/svg" viewBox="0 0 595.28 841.89"><defs><style>.cls-1,.cls-2{fill:#fff;}.cls-1,.cls-2,.cls-3,.cls-6{stroke:#231815;stroke-miterlimit:10;}.cls-2{stroke-width:1.5px;}.cls-3,.cls-6{fill:none;}.cls-4{font-size:12px;font-family:AdobeSongStd-Light-GBpc-EUC-H, Adobe Song Std;}.cls-4,.cls-5{fill:#231815;}.cls-6{stroke-dasharray:11.99 11.99;}.cls-7{fill:#040000;}</style></defs><polyline class="cls-1" points="89.44 223.39 78.42 228.56 53.81 240.09 89.44 254.57"/><path class="cls-1" d="M79.4,228.1q6.82,11.19,0,22.39"/><line class="cls-2" x1="205.43" y1="186.97" x2="205.43" y2="291.22"/><polyline class="cls-3" points="83.88 238.98 409.3 378.83 409.3 99.75 83.88 238.98 409.3 238.98"/><line class="cls-2" x1="409.3" y1="99.75" x2="409.3" y2="378.83"/><text class="cls-4" transform="translate(209.62 235.45)">0</text><text class="cls-4" transform="translate(413.23 377.12)">0</text><text class="cls-4" transform="translate(209.62 291.22)">-scale</text><text class="cls-4" transform="translate(209.62 191.51)">scale</text><text class="cls-4" transform="translate(413.23 97.59)">height</text><text class="cls-4" transform="translate(414.51 241.39)">height/2</text><circle class="cls-5" cx="205.43" cy="208.34" r="3.08"/><circle class="cls-5" cx="409.3" cy="156.95" r="3.08"/><line class="cls-5" x1="83.88" y1="238.98" x2="409.3" y2="156.95"/><line class="cls-3" x1="83.88" y1="238.98" x2="89.69" y2="237.51"/><line class="cls-6" x1="101.32" y1="234.58" x2="397.67" y2="159.88"/><line class="cls-3" x1="403.49" y1="158.42" x2="409.3" y2="156.95"/><text class="cls-4" transform="translate(209.62 215.64)">y</text><text class="cls-4" transform="translate(416.42 156.95) scale(0.74 1)">j</text><path class="cls-7" d="M59.2,304.43a.8.8,0,0,1,.29-.65.93.93,0,0,1,.58-.23.56.56,0,0,1,.38.14.63.63,0,0,1,.19.38.9.9,0,0,1-.26.64.81.81,0,0,1-.59.25.61.61,0,0,1-.41-.13A.52.52,0,0,1,59.2,304.43Zm-.12,3c0-.26-.12-.39-.35-.39a1.07,1.07,0,0,0-.57.16,1.91,1.91,0,0,0-.48.42,3.2,3.2,0,0,0-.32.5l-.23.44-.1.19h-.41c0-.05-.08-.09-.08-.11a.85.85,0,0,1,.06-.17,4.42,4.42,0,0,1,.8-1.25,1.9,1.9,0,0,1,1.19-.68h.11l.16,0a1.65,1.65,0,0,1,.6.14,1.76,1.76,0,0,1,.52.42,1.23,1.23,0,0,1,.17.72V308l-.66,2.7c-.46,1.81-.71,2.75-.74,2.82a2.63,2.63,0,0,1-1,1.21,2.71,2.71,0,0,1-1.61.54,1.18,1.18,0,0,1-.92-.28,1,1,0,0,1-.26-.63.82.82,0,0,1,.26-.62.91.91,0,0,1,.62-.27.59.59,0,0,1,.39.13.55.55,0,0,1,.18.42.81.81,0,0,1-.43.75h.19a1.16,1.16,0,0,0,.84-.38,2.54,2.54,0,0,0,.58-.89l.15-.57c.1-.39.22-.86.35-1.41s.28-1.12.44-1.7.27-1.08.36-1.51.14-.68.15-.77A.66.66,0,0,0,59.08,307.42Z"/><path class="cls-7" d="M64.92,309.31v-.18a.28.28,0,0,1,.19-.27H73a.28.28,0,0,1,0,.54H65.11a.28.28,0,0,1-.19-.27Z"/><path class="cls-7" d="M80.74,305.49h.13c.25,0,.4,0,.45-.13v-1c0-.15,0-.31,0-.48a4.68,4.68,0,0,0,0-.53,5,5,0,0,1,0-.55v-1.46c0-.22,0-.41,0-.58v-.42c0-.12,0-.17,0-.17a.31.31,0,0,0-.13-.24,1.71,1.71,0,0,0-.43-.08h-.18v-.22c0-.15,0-.22,0-.22h.1l.28,0,.35,0,.36,0,.28,0c.07,0,.1,0,.11,0h0v3.14a1.71,1.71,0,0,1,1.38-.72,1.13,1.13,0,0,1,1.3,1.08c0,.05,0,.49,0,1.34v.82a3.93,3.93,0,0,0,0,.44.17.17,0,0,0,.11.09,3.18,3.18,0,0,0,.47,0h.15v.44H84.39a8.56,8.56,0,0,0-1.07,0h-.08v-.44h.15c.39,0,.59-.05.59-.15s0-.46,0-1.33,0-1.32,0-1.37a.79.79,0,0,0-.19-.4.7.7,0,0,0-.23-.17.94.94,0,0,0-.25,0,1,1,0,0,0-.76.33,1.23,1.23,0,0,0-.33.53,3.74,3.74,0,0,0-.07.79v1.19a3.57,3.57,0,0,0,0,.39.17.17,0,0,0,0,.12.18.18,0,0,0,.08.06,3.28,3.28,0,0,0,.47,0h.16v.44H81.73a8.68,8.68,0,0,0-1.07,0h-.08v-.44Z"/><path class="cls-7" d="M86,303.84a2.32,2.32,0,0,1,.19-1,2.17,2.17,0,0,1,.48-.7,2,2,0,0,1,.62-.4,2,2,0,0,1,.64-.15,2.08,2.08,0,0,1,.87.17,1.39,1.39,0,0,1,.56.48,2.34,2.34,0,0,1,.26.62,2.8,2.8,0,0,1,.09.68.17.17,0,0,1-.07.13h-2.7v.15c0,.95.32,1.52,1,1.73a1.86,1.86,0,0,0,.42.05.92.92,0,0,0,.69-.3,1.15,1.15,0,0,0,.26-.41l.1-.23s.07,0,.15,0h0c.11,0,.16,0,.16.1a.35.35,0,0,1,0,.12,1.67,1.67,0,0,1-.6.84,1.61,1.61,0,0,1-1,.31,2,2,0,0,1-1.52-.67A2.22,2.22,0,0,1,86,303.84Zm2.92-.55c-.07-.82-.37-1.25-.91-1.3h-.17a.93.93,0,0,0-.24.07,1,1,0,0,0-.28.2,1.46,1.46,0,0,0-.22.4,2.43,2.43,0,0,0-.15.63v.07h2Z"/><path class="cls-7" d="M90.6,300.09a.58.58,0,0,1,.17-.43.64.64,0,0,1,.43-.15.68.68,0,0,1,.38.16.54.54,0,0,1,.16.42.54.54,0,0,1-.16.43.61.61,0,0,1-.4.14.64.64,0,0,1-.41-.14A.63.63,0,0,1,90.6,300.09Zm1.71,5.84a8.59,8.59,0,0,0-1,0H91l-.48,0h-.29v-.44h.15a3.18,3.18,0,0,0,.47,0,.16.16,0,0,0,.11-.1,2.68,2.68,0,0,0,0-.41v-1.83c0-.33,0-.54,0-.63a.23.23,0,0,0-.14-.19,1.21,1.21,0,0,0-.45-.06h-.1V302c0-.15,0-.23,0-.23h.09l.27,0,.35,0,.34,0,.28,0c.06,0,.1,0,.11,0h0v3.65a.19.19,0,0,0,.11.11,2.37,2.37,0,0,0,.34,0h.22v.44Z"/><path class="cls-7" d="M95.77,302a1.29,1.29,0,0,1,1-.43.46.46,0,0,1,.42.19.65.65,0,0,1,.12.36.41.41,0,0,1-.08.24.33.33,0,0,1-.26.11.32.32,0,0,1-.36-.29.29.29,0,0,1,0-.2,0,0,0,0,1,0,0h0a1,1,0,0,0-.51.21s-.08,0-.08.07l0,0,.09.12.1.17a.81.81,0,0,1,.09.25,3.11,3.11,0,0,1,0,.32,1.31,1.31,0,0,1-.47,1,1.77,1.77,0,0,1-1.16.42,1.88,1.88,0,0,1-.95-.27.72.72,0,0,0-.11.36.55.55,0,0,0,.25.5.29.29,0,0,0,.17.06l.69,0a7.81,7.81,0,0,1,1,.06,1.73,1.73,0,0,1,.92.39,1.27,1.27,0,0,1,.38.94,1.08,1.08,0,0,1-.75,1,2.9,2.9,0,0,1-1.36.3,3,3,0,0,1-1.38-.3,1,1,0,0,1-.74-1,.8.8,0,0,1,.2-.57,1.13,1.13,0,0,1,.4-.32l.11-.06a1,1,0,0,1-.35-.81,1.27,1.27,0,0,1,.28-.81,1.3,1.3,0,0,1,.06-2,1.79,1.79,0,0,1,1.16-.42,1.73,1.73,0,0,1,.91.25Zm-.29.63a.65.65,0,0,0-.25-.42.84.84,0,0,0-.5-.17.77.77,0,0,0-.48.16.61.61,0,0,0-.25.43,2.93,2.93,0,0,0,0,.49,1.91,1.91,0,0,0,.07.62.59.59,0,0,0,.29.34.8.8,0,0,0,.41.09,1,1,0,0,0,.36-.06.41.41,0,0,0,.22-.18,1.3,1.3,0,0,0,.11-.19,1.21,1.21,0,0,0,0-.14,2.72,2.72,0,0,0,0-.48A2.93,2.93,0,0,0,95.48,302.64Zm1,4a.56.56,0,0,0-.14-.39A.74.74,0,0,0,96,306a2.4,2.4,0,0,0-.47-.09l-.52,0H94.7a2.7,2.7,0,0,0-.77.06.66.66,0,0,0-.3.27.87.87,0,0,0-.11.38.49.49,0,0,0,.06.22,1.08,1.08,0,0,0,.2.29,1,1,0,0,0,.46.27,2.46,2.46,0,0,0,.77.11,2,2,0,0,0,1.06-.26A.77.77,0,0,0,96.48,306.65Z"/><path class="cls-7" d="M97.8,305.49h.13c.25,0,.4,0,.46-.13v-1.51a4.68,4.68,0,0,0,0-.53v-2.59a2.91,2.91,0,0,1,0-.42v-.17a.32.32,0,0,0-.14-.24,1.61,1.61,0,0,0-.43-.08h-.17v-.22c0-.15,0-.22,0-.22h.09l.28,0,.35,0,.36,0,.29,0h.13v3.14a1.74,1.74,0,0,1,1.38-.72,1.13,1.13,0,0,1,1.3,1.08c0,.05,0,.49,0,1.34v.82a3,3,0,0,0,0,.44.15.15,0,0,0,.1.09,3.38,3.38,0,0,0,.47,0h.16v.44h-1.15a8.79,8.79,0,0,0-1.08,0h-.08v-.44h.16c.39,0,.58-.05.58-.15s0-.46,0-1.33,0-1.32,0-1.37a.72.72,0,0,0-.19-.4.61.61,0,0,0-.23-.17.9.9,0,0,0-.25,0,1,1,0,0,0-.76.33,1.11,1.11,0,0,0-.32.53,3.61,3.61,0,0,0-.08.79v1.19a3.57,3.57,0,0,0,0,.39.5.5,0,0,0,0,.12.17.17,0,0,0,.09.06,3.18,3.18,0,0,0,.47,0H100v.44H98.8a8.79,8.79,0,0,0-1.08,0h-.07v-.44Z"/><path class="cls-7" d="M103,301.88a.94.94,0,0,0,.79-.54,2.66,2.66,0,0,0,.31-1.17V300h.38v1.76h1.29v.45h-1.29v1.38c0,.8,0,1.25,0,1.35a.7.7,0,0,0,.07.31.47.47,0,0,0,.47.37c.28,0,.45-.22.51-.68a4,4,0,0,0,0-.44v-.34h.39v.46a1.48,1.48,0,0,1-.41,1.12.9.9,0,0,1-.67.26,1.25,1.25,0,0,1-.56-.12.85.85,0,0,1-.37-.3,1.84,1.84,0,0,1-.18-.33,1.16,1.16,0,0,1-.07-.31s0-.52,0-1.42v-1.31h-.76v-.36Z"/><path class="cls-7" d="M92.06,313.09a.56.56,0,0,1-.42-.17.64.64,0,0,1-.15-.42,1.62,1.62,0,0,1,.51-1.19,1.74,1.74,0,0,1,1.27-.49,2,2,0,0,1,1.45.53,1.86,1.86,0,0,1,.6,1.39,1.67,1.67,0,0,1-.19.79,2.61,2.61,0,0,1-.46.65,10.15,10.15,0,0,1-.77.71c-.23.2-.55.5-1,.89l-.57.53h.73a13.12,13.12,0,0,0,1.61,0,2.94,2.94,0,0,0,.23-.86v0h.38v0s0,.31-.13.88a6.26,6.26,0,0,1-.14.88v0H91.49v-.3a.24.24,0,0,1,.06-.14,3.1,3.1,0,0,1,.29-.34l.48-.54.32-.35.33-.36.28-.31.27-.33c0-.07.12-.17.22-.29a1.75,1.75,0,0,0,.2-.31c0-.08.08-.17.14-.27a1.58,1.58,0,0,0,.13-.31l.06-.29a1.45,1.45,0,0,0,0-.32,1.74,1.74,0,0,0-.32-1,1.08,1.08,0,0,0-.93-.44,1,1,0,0,0-.56.16,1.18,1.18,0,0,0-.34.32.66.66,0,0,0-.09.18h0a.59.59,0,0,1,.36.13.52.52,0,0,1,.18.44.59.59,0,0,1-.15.41A.6.6,0,0,1,92.06,313.09Z"/><rect class="cls-7" x="78.99" y="308.72" width="28.85" height="0.81"/><path class="cls-7" d="M79.28,328.87a1.76,1.76,0,0,1,.2-.65,3.91,3.91,0,0,1,.65-1,1.31,1.31,0,0,1,1-.49,1.24,1.24,0,0,1,.89.32,1.13,1.13,0,0,1,.36.86,1.4,1.4,0,0,1,0,.29,5.73,5.73,0,0,1-.21.62q-.22.58-.45,1.32a3.87,3.87,0,0,0-.22,1.17,1.33,1.33,0,0,0,.19.81.73.73,0,0,0,.57.25,1.2,1.2,0,0,0,.59-.15,1.9,1.9,0,0,0,.42-.31q.15-.17.36-.45s0-.1.07-.27.11-.44.19-.8.17-.7.26-1q.51-2,.57-2.13a.61.61,0,0,1,.58-.37.39.39,0,0,1,.29.1,1,1,0,0,1,.15.16.19.19,0,0,1,0,.12q0,.18-.66,2.85c-.44,1.79-.7,2.76-.76,2.94A3.5,3.5,0,0,1,83,334.87a3.33,3.33,0,0,1-1.87.68,1.89,1.89,0,0,1-1.07-.3,1,1,0,0,1-.46-.9,1.24,1.24,0,0,1,.09-.5.6.6,0,0,1,.26-.3,1.58,1.58,0,0,1,.27-.13.59.59,0,0,1,.23-.05q.6,0,.6.57a.79.79,0,0,1-.16.48.83.83,0,0,1-.32.27l-.17.07h0c0,.05.1.1.25.17a1.31,1.31,0,0,0,.47.09h.1a1.6,1.6,0,0,0,.36,0,1.76,1.76,0,0,0,.82-.51,3.06,3.06,0,0,0,.59-.84c.13-.3.24-.56.31-.76a1.92,1.92,0,0,0,.11-.41l-.08,0-.26.15a3.7,3.7,0,0,1-.35.17,2.46,2.46,0,0,1-.53.06,2,2,0,0,1-1.1-.3,1.42,1.42,0,0,1-.63-1,3.92,3.92,0,0,1,0-.42,5.93,5.93,0,0,1,.48-2,6.71,6.71,0,0,0,.47-1.59v-.19a.19.19,0,0,0,0-.1.25.25,0,0,0-.15-.05h-.06a.79.79,0,0,0-.57.26,1.89,1.89,0,0,0-.4.55,4.38,4.38,0,0,0-.24.57,1.75,1.75,0,0,1-.1.3s-.09,0-.22,0h-.19A.2.2,0,0,1,79.28,328.87Z"/><rect class="cls-7" x="53.81" y="319.65" width="57.01" height="0.81"/><path class="cls-7" d="M117,318.74a.3.3,0,0,1,.19-.27h8.65a.28.28,0,0,1,0,.53H117.2A.27.27,0,0,1,117,318.74Zm0,2.63a.28.28,0,0,1,.22-.27h8.63c.13.09.19.18.19.27a.3.3,0,0,1-.2.28h-8.65A.32.32,0,0,1,117,321.37Z"/><path class="cls-7" d="M134.1,313.65h.19c.35,0,.56-.06.64-.19V312c0-.22,0-.44,0-.68s0-.48,0-.75,0-.52,0-.77v-2.08c0-.31,0-.58,0-.81a5.94,5.94,0,0,1,0-.6c0-.16,0-.24,0-.23a.46.46,0,0,0-.19-.34,2.11,2.11,0,0,0-.61-.12h-.25v-.31c0-.21,0-.32,0-.32H134l.4,0,.5,0,.5,0a3,3,0,0,0,.41,0l.15,0h0v4.44a2.41,2.41,0,0,1,2-1,1.6,1.6,0,0,1,1.84,1.53c0,.06,0,.69,0,1.89v1.16a3.18,3.18,0,0,0,0,.61.21.21,0,0,0,.15.14,4.33,4.33,0,0,0,.66,0h.22v.63h-.11l-.33,0h-.67l-.52,0a11,11,0,0,0-1.52,0h-.11v-.63h.22c.55,0,.83-.07.83-.22s0-.64,0-1.87,0-1.87,0-1.94a1.09,1.09,0,0,0-.27-.57.88.88,0,0,0-.32-.23,1,1,0,0,0-.36,0,1.51,1.51,0,0,0-1.07.46,1.7,1.7,0,0,0-.46.75,5.67,5.67,0,0,0-.11,1.13v1.68c0,.27,0,.45,0,.54a.82.82,0,0,0,0,.18.29.29,0,0,0,.13.08,4.33,4.33,0,0,0,.66,0h.22v.63H137l-.31,0H136l-.52,0a11,11,0,0,0-1.52,0h-.11v-.63Z"/><path class="cls-7" d="M141.47,311.32a3.34,3.34,0,0,1,.27-1.36,2.94,2.94,0,0,1,.68-1,2.56,2.56,0,0,1,.88-.57,2.65,2.65,0,0,1,.9-.21,2.87,2.87,0,0,1,1.23.25,1.77,1.77,0,0,1,.79.68,3,3,0,0,1,.38.87,4.66,4.66,0,0,1,.12,1,.28.28,0,0,1-.09.19H142.8v.2c0,1.34.45,2.16,1.36,2.45a2.21,2.21,0,0,0,.59.08,1.3,1.3,0,0,0,1-.44,1.52,1.52,0,0,0,.37-.57l.13-.32s.1,0,.22,0h0c.16,0,.23,0,.23.13a.54.54,0,0,1,0,.18,2.4,2.4,0,0,1-.85,1.18,2.24,2.24,0,0,1-1.35.43,2.78,2.78,0,0,1-2.14-.93A3.2,3.2,0,0,1,141.47,311.32Zm4.14-.78c-.1-1.16-.53-1.77-1.29-1.84h-.24a1.59,1.59,0,0,0-.34.11,1,1,0,0,0-.4.28,2.19,2.19,0,0,0-.31.56,3.7,3.7,0,0,0-.22.9v.09h2.8Z"/><path class="cls-7" d="M148.05,306a.76.76,0,0,1,.25-.6.88.88,0,0,1,.59-.22,1,1,0,0,1,.55.23.78.78,0,0,1,.23.59.79.79,0,0,1-.23.61.83.83,0,0,1-.57.2.77.77,0,0,1-.82-.81Zm2.42,8.27a10.92,10.92,0,0,0-1.41,0h-.51c-.23,0-.46,0-.67,0l-.3,0h-.11v-.63h.22a4.33,4.33,0,0,0,.66,0,.27.27,0,0,0,.15-.15,2.86,2.86,0,0,0,0-.57V310.3a8,8,0,0,0,0-.9.32.32,0,0,0-.19-.26,1.63,1.63,0,0,0-.64-.09h-.15v-.31c0-.21,0-.32,0-.32h.14l.38,0,.48,0,.49,0a2.78,2.78,0,0,0,.4,0c.09,0,.14,0,.15,0h0v5.15a.3.3,0,0,0,.16.17l.48,0h.31v.63Z"/><path class="cls-7" d="M155.36,308.72a1.88,1.88,0,0,1,1.35-.59.67.67,0,0,1,.59.25,1,1,0,0,1,.17.52.52.52,0,0,1-.12.34.44.44,0,0,1-.37.15.45.45,0,0,1-.5-.41.39.39,0,0,1,0-.28l0,0v0a1.43,1.43,0,0,0-.72.3c-.08.05-.11.08-.11.1l0,.06a.62.62,0,0,1,.12.17,2.52,2.52,0,0,1,.15.24,1,1,0,0,1,.13.35c0,.15,0,.3.05.45a1.84,1.84,0,0,1-.66,1.43,2.44,2.44,0,0,1-1.65.59,2.6,2.6,0,0,1-1.34-.38,1,1,0,0,0-.15.52.8.8,0,0,0,.35.71.46.46,0,0,0,.23.08l1,0a9.19,9.19,0,0,1,1.47.09,2.39,2.39,0,0,1,1.3.55,1.83,1.83,0,0,1,.53,1.33,1.52,1.52,0,0,1-1.06,1.4,4.13,4.13,0,0,1-1.93.42,4.2,4.2,0,0,1-1.94-.42,1.5,1.5,0,0,1-1.06-1.36,1.2,1.2,0,0,1,.29-.81,1.61,1.61,0,0,1,.57-.45l.15-.08a1.41,1.41,0,0,1-.49-1.14,1.86,1.86,0,0,0-.2-2.5,1.83,1.83,0,0,1,.67-1.44,2.58,2.58,0,0,1,2.94-.24Zm-.41.9a1,1,0,0,0-.35-.6,1.25,1.25,0,0,0-.71-.23,1.07,1.07,0,0,0-.68.22.9.9,0,0,0-.35.61,4,4,0,0,0,0,.69,3.14,3.14,0,0,0,.09.88.94.94,0,0,0,.41.48,1.13,1.13,0,0,0,.58.13,1.38,1.38,0,0,0,.52-.09.65.65,0,0,0,.31-.24,2.6,2.6,0,0,0,.15-.28.8.8,0,0,0,.07-.2,3.75,3.75,0,0,0,0-.68A4,4,0,0,0,155,309.62Zm1.41,5.67a.78.78,0,0,0-.19-.55,1.09,1.09,0,0,0-.56-.32,4.65,4.65,0,0,0-.66-.12c-.2,0-.45,0-.73,0h-.37a3.72,3.72,0,0,0-1.09.08.86.86,0,0,0-.42.38,1.17,1.17,0,0,0-.16.54.83.83,0,0,0,.08.31,1.49,1.49,0,0,0,.29.41,1.47,1.47,0,0,0,.65.38,3.73,3.73,0,0,0,1.08.16,2.62,2.62,0,0,0,1.51-.38A1.06,1.06,0,0,0,156.36,315.29Z"/><path class="cls-7" d="M158.23,313.65h.19c.36,0,.57-.06.64-.19V312c0-.22,0-.44,0-.68s0-.48,0-.75v-2.85c0-.31,0-.58,0-.81a5.94,5.94,0,0,1,0-.6c0-.16,0-.24,0-.23a.46.46,0,0,0-.19-.34,2,2,0,0,0-.61-.12H158v-.31a1.14,1.14,0,0,1,0-.32h.14l.39,0,.5,0,.51,0a2.78,2.78,0,0,0,.4,0l.15,0h0v4.44a2.44,2.44,0,0,1,2-1,1.6,1.6,0,0,1,1.83,1.53c0,.06,0,.69,0,1.89v1.16a3.69,3.69,0,0,0,0,.61.21.21,0,0,0,.15.14,4.38,4.38,0,0,0,.67,0H165v.63h-.1l-.33,0h-.68l-.51,0a11.2,11.2,0,0,0-1.53,0h-.1v-.63H162c.56,0,.83-.07.83-.22s0-.64,0-1.87,0-1.87,0-1.94a1.26,1.26,0,0,0-.27-.57.9.9,0,0,0-.33-.23.93.93,0,0,0-.35,0,1.48,1.48,0,0,0-1.07.46,1.73,1.73,0,0,0-.47.75,5.12,5.12,0,0,0-.1,1.13v1.68c0,.27,0,.45,0,.54a.48.48,0,0,0,0,.18.31.31,0,0,0,.12.08,4.38,4.38,0,0,0,.67,0h.21v.63h-.1l-.32,0h-.69l-.51,0a11.2,11.2,0,0,0-1.53,0H158v-.63Z"/><path class="cls-7" d="M165.59,308.55a1.35,1.35,0,0,0,1.11-.76,3.65,3.65,0,0,0,.44-1.66v-.2h.54v2.49h1.83v.63h-1.83V311c0,1.14,0,1.77,0,1.92a1.12,1.12,0,0,0,.1.43.68.68,0,0,0,.66.53c.4,0,.65-.32.74-1,0-.07,0-.28,0-.63v-.47h.54v.64a2.08,2.08,0,0,1-.57,1.58,1.26,1.26,0,0,1-.95.37,1.84,1.84,0,0,1-.8-.16,1.27,1.27,0,0,1-.51-.42,1.91,1.91,0,0,1-.26-.48,1.67,1.67,0,0,1-.1-.43c0-.07,0-.74,0-2v-1.86h-1.07v-.5Z"/><path class="cls-7" d="M142.05,328.47a1.33,1.33,0,0,0-.37-.93,1.39,1.39,0,0,0-1.06-.4,1.8,1.8,0,0,0-.84.18.81.81,0,0,0-.41.71.48.48,0,0,0,0,.17.72.72,0,0,0,.22.33,1.35,1.35,0,0,0,.58.34l.6.12.6.12a2.41,2.41,0,0,1,.43.18,2.33,2.33,0,0,1,.45.27,1.69,1.69,0,0,1,.43.56,1.66,1.66,0,0,1,.23.84,1.93,1.93,0,0,1-.51,1.38,2.26,2.26,0,0,1-1.67.56h-.11a2,2,0,0,1-1.3-.49l-.11.1-.12.12-.17.15-.15.13h-.16s-.07,0-.12-.08V331a1.06,1.06,0,0,1,0-.34s.06-.06.13-.07h.12a.29.29,0,0,1,.22.06.26.26,0,0,1,.07.16,3,3,0,0,0,.09.37,3.43,3.43,0,0,0,.26.57,1.52,1.52,0,0,0,1.32.69c.88,0,1.32-.35,1.32-1.06a.9.9,0,0,0-.25-.64,1.93,1.93,0,0,0-1.13-.48,4.38,4.38,0,0,1-1.12-.32,1.94,1.94,0,0,1-.78-.62,1.39,1.39,0,0,1-.28-.84,1.69,1.69,0,0,1,.23-.9,1.5,1.5,0,0,1,.58-.54,3.16,3.16,0,0,1,.68-.25,3.38,3.38,0,0,1,.6-.06h.15a2,2,0,0,1,1,.2l.2.11.13-.1.29-.23h.17s.06,0,.12.08v1.8l-.08.08h-.38A.22.22,0,0,1,142.05,328.47Z"/><path class="cls-7" d="M148.41,328.62h-.28a.64.64,0,0,1-.49-.2.75.75,0,0,1-.22-.52.68.68,0,0,1,.21-.51l.06-.08s0,0-.13,0a4,4,0,0,0-.67,0,1.43,1.43,0,0,0-1.08.43,2.93,2.93,0,0,0-.64,2.13,3.15,3.15,0,0,0,.42,1.75,1.72,1.72,0,0,0,1.49.83,1.22,1.22,0,0,0,.9-.35,2.22,2.22,0,0,0,.49-.84.23.23,0,0,1,.06-.14.48.48,0,0,1,.22,0h.19c.06.06.08.1.08.12a.68.68,0,0,1-.05.22,3,3,0,0,1-.22.45,2.83,2.83,0,0,1-.39.52,2.43,2.43,0,0,1-.65.42,2.22,2.22,0,0,1-.94.17,2.79,2.79,0,0,1-2-.87,3,3,0,0,1-.88-2.18,3.15,3.15,0,0,1,.88-2.3,2.86,2.86,0,0,1,2.05-.88,2.66,2.66,0,0,1,1.63.37,1.06,1.06,0,0,1,.46.87.6.6,0,0,1-.23.5Z"/><path class="cls-7" d="M151.28,328.62H151a.65.65,0,0,1-.5-.2.71.71,0,0,1-.21-.53,1.07,1.07,0,0,1,.46-.84,3.46,3.46,0,0,1,3.25.07,2,2,0,0,1,.81,1,1.16,1.16,0,0,1,.07.42c0,.15,0,.67,0,1.56v.95a4.33,4.33,0,0,0,.07.9.29.29,0,0,0,.29.24.27.27,0,0,0,.27-.22,2.84,2.84,0,0,0,.07-.72v-.48h.54v.52a4.07,4.07,0,0,1,0,.64,1.1,1.1,0,0,1-.48.64,1.46,1.46,0,0,1-.74.25.83.83,0,0,1-.64-.25,1.38,1.38,0,0,1-.33-.57v0l0,0-.07.08-.11.12-.16.15-.21.16a.61.61,0,0,1-.24.15l-.3.11a2,2,0,0,1-.35.08l-.42,0a2.63,2.63,0,0,1-1.47-.42,1.33,1.33,0,0,1-.65-1.18,1.61,1.61,0,0,1,.09-.54,2,2,0,0,1,.37-.56,2.5,2.5,0,0,1,.65-.5,4.84,4.84,0,0,1,1.06-.38,6.24,6.24,0,0,1,1.49-.2h.19v-.3a1.92,1.92,0,0,0-.08-.68,1.26,1.26,0,0,0-1.31-1l-.47,0a2.27,2.27,0,0,0-.34.05l-.1,0a.7.7,0,0,1,.29.6.68.68,0,0,1-.21.53Zm-.15,2.7a1,1,0,0,0,.32.75,1.15,1.15,0,0,0,.8.34,1.39,1.39,0,0,0,.91-.31,1.47,1.47,0,0,0,.53-.82,7.19,7.19,0,0,0,0-.89c0-.53,0-.79,0-.79h-.29a5.88,5.88,0,0,0-1.39.4,1.67,1.67,0,0,0-.63.5A1.35,1.35,0,0,0,151.13,331.32Z"/><path class="cls-7" d="M156.77,332.14H157c.36,0,.57-.06.64-.19v-.87c0-.17,0-.37,0-.58v-.68q0-.36,0-.75v-3.66c0-.24,0-.44,0-.6s0-.24,0-.23a.44.44,0,0,0-.19-.34,1.54,1.54,0,0,0-.61-.12h-.24v-.32a1.09,1.09,0,0,1,0-.31h.14l.39,0,.51,0,.5,0,.41,0,.14,0h.05v4.28c0,2.87,0,4.31,0,4.33a.33.33,0,0,0,.16.15,4.38,4.38,0,0,0,.67,0h.21v.62h-1.08l-.52,0a4.2,4.2,0,0,0-.51,0l-.68,0h-.42v-.62Z"/><path class="cls-7" d="M160.36,329.8a3.29,3.29,0,0,1,.27-1.35,2.94,2.94,0,0,1,.68-1,2.56,2.56,0,0,1,.88-.57,2.65,2.65,0,0,1,.9-.21,2.73,2.73,0,0,1,1.23.25,1.77,1.77,0,0,1,.79.68,2.83,2.83,0,0,1,.38.86,4.68,4.68,0,0,1,.12,1,.3.3,0,0,1-.09.19h-3.83v.2c0,1.34.45,2.16,1.36,2.44a1.87,1.87,0,0,0,.59.09,1.3,1.3,0,0,0,1-.44,1.65,1.65,0,0,0,.37-.57l.13-.32s.1,0,.22,0h0c.15,0,.23,0,.23.13a.54.54,0,0,1,0,.18,2.4,2.4,0,0,1-.85,1.18,2.24,2.24,0,0,1-1.35.43,2.78,2.78,0,0,1-2.14-.93A3.2,3.2,0,0,1,160.36,329.8Zm4.14-.77c-.1-1.16-.53-1.77-1.29-1.85h0l-.22,0a1.39,1.39,0,0,0-.34.11,1.08,1.08,0,0,0-.39.28,2,2,0,0,0-.31.56,3.73,3.73,0,0,0-.22.89v.1h2.8Z"/><rect class="cls-7" x="132.18" y="319.65" width="39.68" height="0.81"/></svg>